<svg xmlns="http://www.w3.org/2000/svg" viewBox="0 0 2024 2024">
  <path fill="#e30613" d="M857 493v364H495v311h362v362h312v-362h362V857h-362V493"/>
  <path fill="none" stroke="#000" stroke-width="26.2" d="M1999 1012a987 987 0 01-987 987 987 987 0 01-987-987 987 987 0 01987-987 987 987 0 01987 987zm-365 0a622 622 0 01-622 622 622 622 0 01-622-622 622 622 0 01622-622 622 622 0 01622 622z" paint-order="stroke fill markers"/>
  <path d="M1895 1357l-13 29-25 5 12 23-13 28-25-43 15-32zm-219-138l33 16 76 151 39-86 32 14-62 136-29-13-79-158-48 105-31-14zm221-15l36 29-11 42-31-47zm-210-47l198 49-10 40-198-49zm274-173l-1 31-22 15 20 16-1 32-40-30 2-36zm-140 15l-2 31c0 20 0 32 2 37 1 5 4 9 8 12s9 4 15 4c7 1 12-1 17-5 4-3 7-8 8-15l2-30 1-32zm-116-45l203 7-3 87c-1 22-3 37-7 47s-11 17-21 23c-9 6-20 8-32 8-15-1-28-6-37-15-10-9-16-23-18-41-5 9-11 16-17 21-7 6-18 13-34 23l-41 23 2-49 45-28c16-10 27-17 31-21 4-3 7-8 9-12l3-20v-9l-85-3zm-41-185l197-48 10 40-88 21 108 60 13 53-96-56-101 108-13-52 80-76-41-25-60 15zm72-302l45-8 25 35-56-7zm-172 129l70-50 53-129 28 40-39 85 93-8 28 39-140 7-70 49zm-163-161l133-154 30 26-26 157 89-103 29 25-133 154-31-27 25-154-87 101zm-156-78l89-183 136 66-15 31-99-48-20 40 92 45-15 31-91-45-25 50 103 50-15 30zm-126-29l-33-213 44 8 22 158 77-139 43 8-110 187zM910 208l30-2c20-1 32-3 37-5s8-5 11-9c2-5 3-10 3-16-1-7-3-12-7-16s-9-6-16-7l-30 2-32 2zm-32 121l-15-203 86-7c22-1 37-1 48 2 10 3 18 9 25 18 6 9 10 19 11 31 1 15-3 28-11 39-8 10-21 18-38 22 9 4 17 9 23 15s15 16 26 31l27 38-49 4-33-42-23-29c-5-3-9-6-13-7-5-1-12-2-21-1l-8 1 6 85zm-164 54l-67-192 142-49 11 32-103 36 15 43 96-34 11 33-96 33 18 53 107-38 12 32zM443 252l26-18 24 9 2-26 26-18-1 50-30 20zm179 98l40-12c8 22 9 41 3 58s-18 32-36 44a88 88 0 01-70 15c-25-6-46-22-64-49-19-28-27-54-23-79 4-26 18-47 41-63 21-13 42-19 63-15 12 2 25 8 38 19l-28 31c-8-7-17-12-27-12-9-1-19 2-28 8-12 8-19 20-21 34s4 31 18 51c14 21 28 34 42 38s27 1 39-7c9-6 15-14 18-24 2-10 1-23-5-37M250 520l-23-39 24-36 13 55zm180 118l-70-49-140-5 28-40 93 6-40-84 27-39 55 129 71 48zm-97 220l-192-68 14-39 85 30-57-108 18-52 49 99 144-35-17 50-109 21 21 43 58 20zm-83 181l-1-40c14-1 24-5 31-12s11-17 12-29c0-13-2-24-7-31s-11-11-18-11c-5 0-9 1-13 3-4 3-7 8-10 14l-11 32c-7 22-15 37-24 45a52 52 0 01-42 16 55 55 0 01-47-38c-3-11-5-25-4-40 2-26 9-44 21-56 12-13 28-18 46-18l-1 42c-10 1-18 4-23 9-5 6-8 14-9 26s1 21 5 28c3 5 7 7 13 8 4 0 9-2 12-6 5-4 10-17 17-36 6-20 12-34 17-43 6-10 13-17 23-21 9-5 20-7 32-6a60 60 0 0153 41c4 12 5 27 4 45-2 25-9 45-22 58a78 78 0 01-54 20m94 165l-200 35-26-149 34-6 19 109 44-8-17-101 33-6 18 101 54-10-19-112 34-6zm-170 252l-14-28 13-23-26-5-13-29 49 9 15 32zm125-162l-6-41c23-4 42-2 58 6s28 22 38 42c11 25 12 49 3 72-9 24-28 42-57 56-31 15-58 18-83 10-24-8-42-24-55-50a84 84 0 01-6-65c4-12 13-23 25-34l27 32c-9 7-14 15-17 25-2 9-1 19 4 29 6 13 17 22 30 26 14 4 32 0 54-10 23-11 38-23 44-36s5-26-1-39c-5-10-12-17-21-21-10-5-22-5-37-2"/>
</svg>
