<?xml version="1.0" encoding="UTF-8" standalone="no"?>
<!DOCTYPE svg PUBLIC "-//W3C//DTD SVG 1.1//EN" "http://www.w3.org/Graphics/SVG/1.1/DTD/svg11.dtd">
<svg width="100%" height="100%" viewBox="0 0 300 300" version="1.1" xmlns="http://www.w3.org/2000/svg" xmlns:xlink="http://www.w3.org/1999/xlink" xml:space="preserve" style="fill-rule:evenodd;clip-rule:evenodd;stroke-miterlimit:2.613;">
    <g transform="matrix(0.876848,0,0,0.876848,-207.898,-185.609)">
        <g>
            <g>
                <g transform="matrix(2.97859,0,0,2.97859,-434.77,-890.143)">
                    <g transform="matrix(4.01983,0,0,4.01983,-1147.33,-1652.04)">
                        <path d="M355.817,503.089C363.634,503.089 370.01,509.466 370.01,517.283C370.01,525.1 363.634,531.475 355.817,531.475C348.002,531.475 341.626,525.1 341.626,517.283C341.626,509.466 348.002,503.089 355.817,503.089Z" style="fill:white;stroke:black;stroke-width:0.09px;"/>
                    </g>
                    <g transform="matrix(3.52516,0,0,3.52516,-971.319,-1396.16)">
                        <path d="M355.817,507.541C356.407,507.541 356.984,507.594 357.545,507.695C362.091,508.515 365.561,512.508 365.561,517.283C365.561,522.647 361.183,527.025 355.817,527.025C350.452,527.025 346.077,522.647 346.077,517.283C346.077,512.165 350.06,507.944 355.087,507.568C355.329,507.55 355.572,507.541 355.817,507.541Z" style="fill:white;stroke:black;stroke-width:0.1px;"/>
                    </g>
                    <g transform="matrix(1.03797,0,0,1.03797,117.57,-16.8862)">
                        <path d="M131.416,420.007L151.397,420.007L151.397,400.026L167.356,400.026L167.356,420.007L187.337,420.007L187.337,435.967L167.356,435.967L167.356,455.948L151.397,455.948L151.397,435.967L131.416,435.967L131.416,420.007Z" style="fill:rgb(242,13,13);"/>
                    </g>
                </g>
                <g transform="matrix(2.34507,0,0,2.34507,-556.276,-565.055)">
                    <g transform="matrix(0.346196,0.277175,-0.255854,0.319565,385.653,148.972)">
                        <path d="M399.27,607.708L399.27,586.83L411.005,586.83L411.005,590.362L402.716,590.362L402.716,595.304L409.88,595.304L409.88,598.836L402.716,598.836L402.716,607.708L399.27,607.708Z" style="fill:rgb(29,29,27);fill-rule:nonzero;"/>
                    </g>
                    <g transform="matrix(0.376862,0.233779,-0.215796,0.347873,352.024,146.793)">
                        <path d="M412.293,618.175L412.293,597.297L419.571,597.297C421.432,597.297 422.761,597.485 423.558,597.86C424.356,598.235 425.011,598.885 425.524,599.811C426.036,600.737 426.293,601.845 426.293,603.136C426.293,604.769 425.901,606.084 425.118,607.081C424.335,608.078 423.221,608.705 421.778,608.961C422.519,609.493 423.131,610.074 423.615,610.706C424.1,611.337 424.759,612.469 425.595,614.102L427.674,618.175L423.558,618.175L421.052,613.632C420.15,611.99 419.538,610.962 419.215,610.549C418.892,610.136 418.55,609.851 418.189,609.695C417.829,609.538 417.249,609.46 416.452,609.46L415.74,609.46L415.74,618.175L412.293,618.175ZM415.74,606.127L418.303,606.127C419.87,606.127 420.867,606.058 421.294,605.921C421.721,605.783 422.068,605.505 422.334,605.087C422.599,604.67 422.732,604.114 422.732,603.421C422.732,602.757 422.599,602.223 422.334,601.819C422.068,601.416 421.707,601.138 421.251,600.986C420.928,600.881 419.993,600.829 418.446,600.829L415.74,600.829L415.74,606.127Z" style="fill:rgb(29,29,27);fill-rule:nonzero;"/>
                    </g>
                    <g transform="matrix(0.40165,0.18803,-0.173566,0.370754,317.921,148.869)">
                        <path d="M433.416,628.353L433.416,619.566L427.15,607.475L431.195,607.475L435.225,615.735L439.184,607.475L443.158,607.475L436.863,619.594L436.863,628.353L433.416,628.353ZM433.359,606.079L434.969,601.821L438.657,601.821L435.439,606.079L433.359,606.079Z" style="fill:rgb(29,29,27);fill-rule:nonzero;"/>
                    </g>
                    <g transform="matrix(0.421906,0.13665,-0.126138,0.389452,280.502,157.102)">
                        <path d="M445.353,615.091L451.662,615.091C453.257,615.091 454.461,615.269 455.272,615.625C456.084,615.981 456.832,616.581 457.515,617.426C458.199,618.271 458.735,619.368 459.125,620.716C459.514,622.064 459.709,623.74 459.709,625.744C459.709,627.547 459.504,629.116 459.096,630.45C458.688,631.784 458.17,632.841 457.544,633.619C456.917,634.398 456.16,634.984 455.272,635.378C454.385,635.772 453.243,635.969 451.847,635.969L445.353,635.969L445.353,615.091ZM448.8,618.623L448.8,632.451L451.392,632.451C452.502,632.451 453.307,632.347 453.805,632.138C454.304,631.929 454.712,631.613 455.03,631.191C455.348,630.768 455.612,630.101 455.821,629.19C456.03,628.279 456.134,627.077 456.134,625.587C456.134,624.039 456.027,622.819 455.814,621.927C455.6,621.034 455.268,620.332 454.817,619.819C454.366,619.306 453.817,618.969 453.172,618.808C452.687,618.684 451.752,618.623 450.366,618.623L448.8,618.623Z" style="fill:rgb(29,29,27);fill-rule:nonzero;"/>
                    </g>
                    <g transform="matrix(0.435511,0.0837157,-0.077276,0.40201,243.676,171.187)">
                        <path d="M463.952,641.833L463.952,620.955L476.656,620.955L476.656,624.487L467.399,624.487L467.399,629.115L476.001,629.115L476.001,632.633L467.399,632.633L467.399,638.316L476.969,638.316L476.969,641.833L463.952,641.833Z" style="fill:rgb(29,29,27);fill-rule:nonzero;"/>
                    </g>
                    <g transform="matrix(0.442571,0.0284413,-0.0262535,0.408527,207.466,192.107)">
                        <path d="M481.775,645.228L481.775,624.35L485.221,624.35L485.221,633.621L492.214,624.35L496.871,624.35L490.42,632.482L497.213,645.228L492.741,645.228L488.027,635.43L485.221,638.919L485.221,645.228L481.775,645.228Z" style="fill:rgb(29,29,27);fill-rule:nonzero;"/>
                    </g>
                    <g transform="matrix(0.443341,-0.0112483,0.0103831,0.409238,183.118,210.935)">
                        <rect x="500.209" y="636.638" width="6.451" height="4.002" style="fill:rgb(29,29,27);"/>
                    </g>
                    <g transform="matrix(0.439891,-0.0563391,0.0520053,0.406053,157.815,236.067)">
                        <path d="M510.975,646.171L510.975,625.293L516.145,625.293L519.249,639.535L522.326,625.293L527.509,625.293L527.509,646.171L524.305,646.171L524.305,629.736L520.901,646.171L517.569,646.171L514.194,629.736L514.194,646.171L510.975,646.171Z" style="fill:rgb(29,29,27);fill-rule:nonzero;"/>
                    </g>
                    <g transform="matrix(0.431264,-0.10339,0.0954369,0.398089,134.349,267.358)">
                        <path d="M532.935,642.913L532.935,622.034L536.382,622.034L536.382,642.913L532.935,642.913ZM532.864,620.639L534.473,616.381L538.162,616.381L534.943,620.639L532.864,620.639Z" style="fill:rgb(29,29,27);fill-rule:nonzero;"/>
                    </g>
                    <g transform="matrix(0.421774,-0.137058,0.126515,0.389329,119.68,291.939)">
                        <path d="M540.402,634.291L543.777,633.893C544.157,636.561 545.401,637.894 547.508,637.894C548.553,637.894 549.374,637.622 549.972,637.076C550.57,636.53 550.869,635.853 550.869,635.046C550.869,634.571 550.765,634.168 550.556,633.836C550.347,633.503 550.029,633.23 549.602,633.017C549.175,632.803 548.14,632.445 546.497,631.942C545.026,631.495 543.948,631.011 543.264,630.489C542.581,629.967 542.037,629.281 541.634,628.431C541.23,627.581 541.028,626.667 541.028,625.689C541.028,624.55 541.287,623.525 541.805,622.613C542.322,621.702 543.037,621.014 543.948,620.548C544.859,620.083 545.985,619.85 547.323,619.85C549.336,619.85 550.907,620.396 552.037,621.488C553.167,622.58 553.765,624.142 553.832,626.174L550.371,626.359C550.219,625.238 549.891,624.455 549.388,624.009C548.885,623.563 548.168,623.34 547.238,623.34C546.307,623.34 545.591,623.534 545.087,623.924C544.584,624.313 544.333,624.797 544.333,625.376C544.333,625.946 544.56,626.425 545.016,626.815C545.472,627.204 546.521,627.631 548.163,628.096C549.901,628.6 551.157,629.129 551.93,629.684C552.704,630.24 553.295,630.956 553.703,631.835C554.112,632.713 554.316,633.779 554.316,635.032C554.316,636.845 553.758,638.369 552.642,639.603C551.527,640.838 549.782,641.455 547.409,641.455C543.212,641.455 540.877,639.067 540.402,634.291Z" style="fill:rgb(29,29,27);fill-rule:nonzero;"/>
                    </g>
                    <g transform="matrix(0.403213,-0.184653,0.170449,0.372197,102.91,331.462)">
                        <path d="M562.314,635.319L562.314,617.972L557.23,617.972L557.23,614.441L570.831,614.441L570.831,617.972L565.761,617.972L565.761,635.319L562.314,635.319Z" style="fill:rgb(29,29,27);fill-rule:nonzero;"/>
                    </g>
                    <g transform="matrix(0.379393,-0.229649,0.211984,0.350209,91.9819,373.427)">
                        <path d="M573.62,628.308L573.62,607.43L586.323,607.43L586.323,610.962L577.066,610.962L577.066,615.591L585.668,615.591L585.668,619.108L577.066,619.108L577.066,624.791L586.637,624.791L586.637,628.308L573.62,628.308Z" style="fill:rgb(29,29,27);fill-rule:nonzero;"/>
                    </g>
                    <g transform="matrix(0.34764,-0.275362,0.254181,0.320898,87.2474,421.265)">
                        <path d="M589.172,618.881L589.172,598.003L592.619,598.003L592.619,607.274L599.611,598.003L604.268,598.003L597.817,606.135L604.61,618.881L600.138,618.881L595.424,609.083L592.619,612.572L592.619,618.881L589.172,618.881Z" style="fill:rgb(29,29,27);fill-rule:nonzero;"/>
                    </g>
                </g>
                <g transform="matrix(1.9357,0,0,1.9357,-387.917,-399.598)">
                    <g transform="matrix(0.414863,0.341397,-0.315135,0.382951,383.106,106.115)">
                        <path d="M388.519,554.298C388.519,552.876 388.729,551.706 389.149,550.786C389.57,549.867 390.119,549.182 390.797,548.732C391.476,548.281 392.297,548.056 393.263,548.056C394.663,548.056 395.804,548.59 396.685,549.659C397.567,550.728 398.008,552.25 398.008,554.225C398.008,556.221 397.541,557.781 396.608,558.904C395.789,559.897 394.677,560.393 393.271,560.393C391.855,560.393 390.738,559.902 389.918,558.92C388.985,557.797 388.519,556.256 388.519,554.298ZM390.553,554.217C390.553,555.589 390.814,556.619 391.334,557.305C391.855,557.991 392.501,558.334 393.271,558.334C394.047,558.334 394.69,557.994 395.2,557.313C395.71,556.632 395.965,555.586 395.965,554.176C395.965,552.792 395.717,551.77 395.22,551.108C394.724,550.446 394.074,550.115 393.271,550.115C392.468,550.115 391.815,550.449 391.31,551.116C390.806,551.783 390.553,552.817 390.553,554.217Z" style="fill:rgb(29,29,27);fill-rule:nonzero;"/>
                    </g>
                    <g transform="matrix(0.4443,0.302094,-0.278856,0.410123,354.13,104.146)">
                        <path d="M398.158,555.783L402.072,555.783C403.141,555.783 403.893,555.88 404.327,556.076C404.761,556.271 405.127,556.615 405.425,557.109C405.724,557.603 405.873,558.162 405.873,558.786C405.873,559.361 405.745,559.88 405.49,560.344C405.235,560.808 404.904,561.151 404.497,561.374C405.078,561.58 405.532,561.932 405.861,562.431C406.189,562.931 406.353,563.538 406.353,564.254C406.353,565.122 406.144,565.856 405.726,566.456C405.309,567.055 404.815,567.426 404.245,567.567C403.849,567.664 402.93,567.713 401.486,567.713L398.158,567.713L398.158,555.783ZM400.127,557.768L400.127,560.527L401.429,560.527C402.211,560.527 402.694,560.514 402.878,560.486C403.214,560.432 403.478,560.29 403.667,560.059C403.857,559.829 403.952,559.515 403.952,559.119C403.952,558.767 403.875,558.48 403.72,558.261C403.566,558.041 403.379,557.904 403.159,557.85C402.939,557.796 402.308,557.768 401.267,557.768L400.127,557.768ZM400.127,562.513L400.127,565.703L401.958,565.703C402.761,565.703 403.277,565.661 403.505,565.577C403.733,565.493 403.924,565.327 404.078,565.08C404.233,564.834 404.31,564.52 404.31,564.14C404.31,563.75 404.228,563.428 404.062,563.176C403.897,562.924 403.677,562.75 403.403,562.655C403.129,562.56 402.569,562.513 401.722,562.513L400.127,562.513Z" style="fill:rgb(29,29,27);fill-rule:nonzero;"/>
                    </g>
                    <g transform="matrix(0.467768,0.264304,-0.243973,0.431786,326.971,104.942)">
                        <path d="M407.451,573.916L407.451,562.084L409.421,562.084L409.421,571.906L414.336,571.906L414.336,573.916L407.451,573.916Z" style="fill:rgb(29,29,27);fill-rule:nonzero;"/>
                    </g>
                    <g transform="matrix(0.487113,0.226681,-0.209244,0.449643,300.406,108.411)">
                        <path d="M424.542,578.614L422.393,578.614L421.539,575.904L417.633,575.904L416.827,578.614L414.727,578.614L418.536,566.683L420.627,566.683L424.542,578.614ZM420.904,573.894L419.561,569.466L418.235,573.894L420.904,573.894Z" style="fill:rgb(29,29,27);fill-rule:nonzero;"/>
                    </g>
                    <g transform="matrix(0.504541,0.184666,-0.170461,0.46573,271.648,114.895)">
                        <path d="M425.338,579.357L427.267,579.129C427.484,580.654 428.195,581.416 429.399,581.416C429.996,581.416 430.465,581.26 430.807,580.948C431.149,580.636 431.32,580.25 431.32,579.789C431.32,579.517 431.26,579.287 431.14,579.097C431.021,578.907 430.839,578.751 430.595,578.629C430.351,578.507 429.76,578.302 428.821,578.015C427.98,577.76 427.364,577.483 426.974,577.184C426.583,576.886 426.273,576.494 426.042,576.009C425.811,575.523 425.696,575.001 425.696,574.442C425.696,573.791 425.844,573.205 426.14,572.684C426.435,572.163 426.844,571.77 427.364,571.504C427.885,571.238 428.528,571.105 429.293,571.105C430.443,571.105 431.341,571.417 431.987,572.041C432.632,572.665 432.974,573.558 433.012,574.719L431.035,574.824C430.948,574.184 430.761,573.737 430.473,573.482C430.186,573.227 429.776,573.099 429.244,573.099C428.713,573.099 428.303,573.21 428.015,573.433C427.728,573.655 427.584,573.932 427.584,574.263C427.584,574.588 427.714,574.862 427.975,575.085C428.235,575.307 428.835,575.551 429.773,575.817C430.766,576.105 431.484,576.407 431.926,576.725C432.368,577.042 432.706,577.452 432.939,577.954C433.172,578.455 433.289,579.064 433.289,579.781C433.289,580.817 432.97,581.688 432.333,582.393C431.695,583.098 430.698,583.451 429.342,583.451C426.944,583.451 425.609,582.086 425.338,579.357Z" style="fill:rgb(29,29,27);fill-rule:nonzero;"/>
                    </g>
                    <g transform="matrix(0.517673,0.143798,-0.132736,0.477852,244.52,123.921)">
                        <path d="M437.79,586.735L437.79,576.823L434.885,576.823L434.885,574.805L442.656,574.805L442.656,576.823L439.759,576.823L439.759,586.735L437.79,586.735Z" style="fill:rgb(29,29,27);fill-rule:nonzero;"/>
                    </g>
                    <g transform="matrix(0.527654,0.101213,-0.0934278,0.487066,217.254,136.165)">
                        <path d="M444.811,589.271L444.811,577.341L446.732,577.341L450.735,585.308L450.735,577.341L452.575,577.341L452.575,589.271L450.589,589.271L446.65,581.491L446.65,589.271L444.811,589.271Z" style="fill:rgb(29,29,27);fill-rule:nonzero;"/>
                    </g>
                    <g transform="matrix(0.533328,0.0649955,-0.0599958,0.492303,194.97,148.489)">
                        <path d="M455.679,591.239L455.679,579.308L457.648,579.308L457.648,591.239L455.679,591.239ZM455.638,578.511L456.558,576.078L458.665,576.078L456.826,578.511L455.638,578.511Z" style="fill:rgb(29,29,27);fill-rule:nonzero;"/>
                    </g>
                    <g transform="matrix(0.53704,0.0158617,-0.0146415,0.495729,166.286,168.676)">
                        <path d="M464.839,588.397L466.767,588.169C466.984,589.694 467.695,590.456 468.9,590.456C469.496,590.456 469.966,590.3 470.307,589.988C470.649,589.676 470.82,589.29 470.82,588.828C470.82,588.557 470.76,588.327 470.641,588.137C470.522,587.947 470.34,587.791 470.096,587.669C469.852,587.547 469.26,587.342 468.322,587.054C467.481,586.799 466.865,586.523 466.474,586.224C466.084,585.926 465.773,585.534 465.543,585.048C465.312,584.563 465.197,584.041 465.197,583.482C465.197,582.831 465.345,582.245 465.64,581.724C465.936,581.203 466.344,580.81 466.865,580.544C467.386,580.278 468.029,580.145 468.794,580.145C469.944,580.145 470.842,580.457 471.487,581.081C472.133,581.705 472.475,582.597 472.513,583.758L470.535,583.864C470.448,583.224 470.261,582.777 469.974,582.522C469.686,582.267 469.277,582.139 468.745,582.139C468.213,582.139 467.804,582.25 467.516,582.473C467.228,582.695 467.085,582.972 467.085,583.303C467.085,583.628 467.215,583.902 467.475,584.125C467.736,584.347 468.335,584.591 469.274,584.857C470.267,585.145 470.984,585.447 471.426,585.765C471.869,586.082 472.206,586.492 472.44,586.993C472.673,587.495 472.789,588.104 472.789,588.82C472.789,589.857 472.471,590.727 471.833,591.433C471.196,592.138 470.199,592.491 468.843,592.491C466.445,592.491 465.11,591.126 464.839,588.397Z" style="fill:rgb(29,29,27);fill-rule:nonzero;"/>
                    </g>
                    <g transform="matrix(0.536528,-0.0282995,0.0261226,0.495257,142.168,189.759)">
                        <path d="M475.662,592.538L475.662,580.608L478.836,580.608C480.018,580.608 480.791,580.665 481.155,580.779C481.735,580.964 482.214,581.357 482.591,581.959C482.968,582.561 483.157,583.337 483.157,584.287C483.157,585.149 482.994,585.872 482.669,586.455C482.343,587.039 481.936,587.448 481.448,587.684C480.96,587.92 480.119,588.038 478.925,588.038L477.631,588.038L477.631,592.538L475.662,592.538ZM477.631,582.626L477.631,586.012L478.722,586.012C479.454,586.012 479.952,585.96 480.215,585.857C480.478,585.754 480.694,585.568 480.862,585.3C481.03,585.031 481.114,584.702 481.114,584.311C481.114,583.915 481.027,583.581 480.854,583.31C480.68,583.039 480.466,582.857 480.211,582.765C479.956,582.672 479.416,582.626 478.592,582.626L477.631,582.626Z" style="fill:rgb(29,29,27);fill-rule:nonzero;"/>
                    </g>
                    <g transform="matrix(0.532106,-0.0743397,0.0686212,0.491175,118.962,214.787)">
                        <path d="M485.621,586.09C485.621,584.668 485.831,583.498 486.252,582.578C486.672,581.658 487.222,580.973 487.9,580.523C488.578,580.073 489.4,579.848 490.366,579.848C491.765,579.848 492.906,580.382 493.788,581.451C494.669,582.52 495.11,584.041 495.11,586.016C495.11,588.013 494.643,589.573 493.71,590.696C492.891,591.688 491.779,592.185 490.374,592.185C488.958,592.185 487.84,591.694 487.021,590.712C486.088,589.589 485.621,588.048 485.621,586.09ZM487.656,586.008C487.656,587.381 487.916,588.41 488.437,589.097C488.958,589.783 489.603,590.126 490.374,590.126C491.15,590.126 491.792,589.786 492.302,589.105C492.812,588.424 493.067,587.378 493.067,585.967C493.067,584.584 492.819,583.561 492.323,582.899C491.826,582.238 491.177,581.907 490.374,581.907C489.571,581.907 488.917,582.24 488.412,582.908C487.908,583.575 487.656,584.608 487.656,586.008Z" style="fill:rgb(29,29,27);fill-rule:nonzero;"/>
                    </g>
                    <g transform="matrix(0.52355,-0.12066,0.111378,0.483277,97.9132,243.295)">
                        <path d="M497.874,590.24L497.874,578.407L499.844,578.407L499.844,588.23L504.759,588.23L504.759,590.24L497.874,590.24Z" style="fill:rgb(29,29,27);fill-rule:nonzero;"/>
                    </g>
                    <g transform="matrix(0.512618,-0.160892,0.148516,0.473186,81.7818,270.643)">
                        <path d="M507.128,588.083L507.128,576.152L514.387,576.152L514.387,578.17L509.097,578.17L509.097,580.815L514.012,580.815L514.012,582.825L509.097,582.825L509.097,586.072L514.566,586.072L514.566,588.083L507.128,588.083Z" style="fill:rgb(29,29,27);fill-rule:nonzero;"/>
                    </g>
                    <g transform="matrix(0.496525,-0.205246,0.189458,0.458331,66.6378,303.675)">
                        <path d="M517.031,584.969L517.031,573.039L519,573.039L519,578.337L522.996,573.039L525.657,573.039L521.971,577.686L525.853,584.969L523.297,584.969L520.604,579.37L519,581.364L519,584.969L517.031,584.969Z" style="fill:rgb(29,29,27);fill-rule:nonzero;"/>
                    </g>
                    <g transform="matrix(0.467868,-0.264127,0.24381,0.431878,51.9046,352.846)">
                        <path d="M537.871,574.178L539.783,574.918C539.485,576.253 538.989,577.228 538.294,577.844C537.6,578.46 536.745,578.768 535.731,578.768C534.456,578.768 533.422,578.277 532.63,577.295C531.719,576.161 531.263,574.631 531.263,572.705C531.263,570.67 531.721,569.078 532.638,567.928C533.436,566.929 534.507,566.43 535.853,566.43C536.949,566.43 537.866,566.805 538.603,567.553C539.13,568.085 539.515,568.874 539.759,569.921L537.806,570.491C537.681,569.846 537.433,569.35 537.061,569.006C536.69,568.661 536.251,568.489 535.747,568.489C535.025,568.489 534.437,568.804 533.981,569.433C533.525,570.063 533.297,571.101 533.297,572.55C533.297,574.053 533.52,575.122 533.965,575.756C534.41,576.391 534.987,576.709 535.698,576.709C536.219,576.709 536.669,576.507 537.049,576.102C537.429,575.698 537.703,575.057 537.871,574.178ZM533.46,563.411L534.982,563.411L535.698,564.624L536.471,563.411L537.977,563.411L536.593,565.812L534.86,565.812L533.46,563.411Z" style="fill:rgb(29,29,27);fill-rule:nonzero;"/>
                    </g>
                    <g transform="matrix(0.442993,-0.304007,0.280622,0.408917,46.0651,389.633)">
                        <path d="M547.532,568.658L549.444,569.399C549.146,570.733 548.649,571.708 547.955,572.324C547.26,572.94 546.406,573.248 545.391,573.248C544.116,573.248 543.083,572.757 542.291,571.775C541.379,570.641 540.923,569.111 540.923,567.185C540.923,565.151 541.382,563.558 542.299,562.408C543.096,561.41 544.168,560.911 545.513,560.911C546.609,560.911 547.526,561.285 548.264,562.034C548.79,562.565 549.175,563.355 549.42,564.402L547.466,564.972C547.342,564.326 547.093,563.831 546.722,563.486C546.35,563.142 545.912,562.97 545.407,562.97C544.686,562.97 544.097,563.284 543.642,563.914C543.186,564.543 542.958,565.582 542.958,567.03C542.958,568.533 543.18,569.602 543.625,570.237C544.07,570.872 544.648,571.189 545.359,571.189C545.879,571.189 546.33,570.987 546.71,570.583C547.089,570.178 547.363,569.537 547.532,568.658ZM543.121,557.891L544.643,557.891L545.359,559.104L546.132,557.891L547.637,557.891L546.254,560.292L544.52,560.292L543.121,557.891Z" style="fill:rgb(29,29,27);fill-rule:nonzero;"/>
                    </g>
                    <g transform="matrix(0.413459,-0.343096,0.316704,0.381655,44.2921,428.661)">
                        <path d="M550.442,566.72L550.442,554.789L552.411,554.789L552.411,560.087L556.407,554.789L559.068,554.789L555.382,559.436L559.264,566.72L556.708,566.72L554.015,561.121L552.411,563.115L552.411,566.72L550.442,566.72Z" style="fill:rgb(29,29,27);fill-rule:nonzero;"/>
                    </g>
                </g>
                <g transform="matrix(1.75913,0,0,1.75913,-315.302,-328.235)">
                    <g transform="matrix(-0.180831,-0.478593,0.53177,-0.200923,146.341,712.324)">
                        <path d="M387.345,498.463L394.644,500.777C393.525,504.846 391.664,507.869 389.062,509.844C386.459,511.819 383.157,512.806 379.156,512.806C374.205,512.806 370.136,511.115 366.949,507.733C363.762,504.351 362.168,499.726 362.168,493.86C362.168,487.655 363.77,482.836 366.974,479.402C370.179,475.969 374.392,474.253 379.614,474.253C384.175,474.253 387.879,475.6 390.727,478.296C392.423,479.89 393.694,482.179 394.542,485.163L387.091,486.943C386.65,485.01 385.73,483.484 384.331,482.365C382.933,481.246 381.233,480.687 379.232,480.687C376.469,480.687 374.227,481.679 372.506,483.662C370.785,485.646 369.924,488.859 369.924,493.301C369.924,498.014 370.772,501.371 372.468,503.371C374.163,505.372 376.367,506.372 379.08,506.372C381.08,506.372 382.801,505.737 384.242,504.465C385.683,503.193 386.718,501.193 387.345,498.463ZM370.281,465.097L376.053,465.097L378.8,468.887L381.75,465.097L387.498,465.097L382.233,472.6L375.621,472.6L370.281,465.097Z" style="fill:rgb(29,29,27);fill-rule:nonzero;stroke:rgb(29,29,27);stroke-width:0.23px;stroke-linejoin:round;stroke-miterlimit:1.41421;"/>
                    </g>
                    <g transform="matrix(-0.0473322,-0.509422,0.566025,-0.0525913,90.198,623.057)">
                        <path d="M351.636,482.63L351.636,445.348L379.28,445.348L379.28,451.655L359.164,451.655L359.164,459.92L377.881,459.92L377.881,466.201L359.164,466.201L359.164,476.348L379.992,476.348L379.992,482.63L351.636,482.63Z" style="fill:rgb(29,29,27);fill-rule:nonzero;stroke:rgb(29,29,27);stroke-width:0.23px;stroke-linejoin:round;stroke-miterlimit:1.41421;"/>
                    </g>
                    <g transform="matrix(0.0753755,-0.506033,0.562259,0.0837505,63.9197,540.325)">
                        <path d="M346.32,441.565L353.644,440.853C354.085,443.311 354.979,445.117 356.327,446.27C357.675,447.422 359.493,447.999 361.782,447.999C364.207,447.999 366.033,447.486 367.263,446.46C368.492,445.435 369.106,444.235 369.106,442.862C369.106,441.98 368.848,441.23 368.331,440.611C367.814,439.992 366.911,439.454 365.622,438.996C364.741,438.691 362.732,438.148 359.595,437.369C355.56,436.368 352.729,435.139 351.101,433.681C348.812,431.63 347.668,429.129 347.668,426.179C347.668,424.28 348.206,422.504 349.283,420.851C350.359,419.198 351.911,417.939 353.937,417.074C355.963,416.21 358.408,415.777 361.273,415.777C365.953,415.777 369.475,416.803 371.84,418.855C374.205,420.906 375.447,423.644 375.566,427.069L368.038,427.399C367.716,425.484 367.025,424.106 365.966,423.267C364.906,422.428 363.316,422.008 361.197,422.008C359.01,422.008 357.298,422.457 356.06,423.356C355.263,423.932 354.865,424.704 354.865,425.67C354.865,426.552 355.238,427.306 355.984,427.934C356.933,428.73 359.239,429.561 362.901,430.426C366.563,431.29 369.272,432.185 371.026,433.109C372.781,434.033 374.154,435.296 375.146,436.898C376.138,438.5 376.634,440.48 376.634,442.836C376.634,444.973 376.041,446.973 374.854,448.838C373.667,450.703 371.989,452.089 369.818,452.996C367.648,453.903 364.944,454.357 361.706,454.357C356.993,454.357 353.373,453.267 350.847,451.089C348.32,448.91 346.812,445.735 346.32,441.565Z" style="fill:rgb(29,29,27);fill-rule:nonzero;stroke:rgb(29,29,27);stroke-width:0.23px;stroke-linejoin:round;stroke-miterlimit:1.41421;"/>
                    </g>
                    <g transform="matrix(0.21444,-0.464507,0.516119,0.238267,53.1338,447.732)">
                        <path d="M351.461,424.496L351.461,387.213L358.989,387.213L358.989,403.769L374.197,387.213L384.318,387.213L370.28,401.735L385.081,424.496L375.341,424.496L365.092,406.999L358.989,413.229L358.989,424.496L351.461,424.496Z" style="fill:rgb(29,29,27);fill-rule:nonzero;stroke:rgb(29,29,27);stroke-width:0.23px;stroke-linejoin:round;stroke-miterlimit:1.41421;"/>
                    </g>
                    <g transform="matrix(0.320354,-0.398904,0.443227,0.355949,63.3195,373.812)">
                        <path d="M373.769,395.334L373.769,379.643L360.113,358.052L368.937,358.052L377.711,372.802L386.307,358.052L394.979,358.052L381.272,379.694L381.272,395.334L373.769,395.334ZM372.778,355.916L376.287,348.312L384.298,348.312L377.304,355.916L372.778,355.916Z" style="fill:rgb(29,29,27);fill-rule:nonzero;stroke:rgb(29,29,27);stroke-width:0.23px;stroke-linejoin:round;stroke-miterlimit:1.41421;"/>
                    </g>
                    <g transform="matrix(0.438377,-0.263775,0.293083,0.487085,92.4644,277.522)">
                        <path d="M413.308,350.972L420.607,353.286C419.488,357.355 417.627,360.377 415.025,362.353C412.422,364.328 409.121,365.315 405.119,365.315C400.169,365.315 396.1,363.624 392.912,360.242C389.725,356.859 388.131,352.235 388.131,346.369C388.131,340.164 389.733,335.345 392.938,331.911C396.142,328.478 400.355,326.761 405.577,326.761C410.138,326.761 413.842,328.109 416.691,330.805C418.386,332.399 419.658,334.688 420.505,337.672L413.054,339.452C412.613,337.519 411.693,335.993 410.295,334.874C408.896,333.755 407.196,333.196 405.196,333.196C402.432,333.196 400.19,334.187 398.469,336.171C396.748,338.155 395.888,341.368 395.888,345.81C395.888,350.523 396.736,353.88 398.431,355.88C400.126,357.881 402.33,358.881 405.043,358.881C407.044,358.881 408.765,358.245 410.206,356.974C411.647,355.702 412.681,353.702 413.308,350.972ZM396.244,317.606L402.017,317.606L404.763,321.395L407.713,317.606L413.461,317.606L408.197,325.108L401.584,325.108L396.244,317.606Z" style="fill:rgb(29,29,27);fill-rule:nonzero;stroke:rgb(29,29,27);stroke-width:0.23px;stroke-linejoin:round;stroke-miterlimit:1.41421;"/>
                    </g>
                    <g transform="matrix(0.492658,-0.137984,0.153316,0.547397,127.146,210.374)">
                        <path d="M416.393,347.7L416.393,310.418L444.037,310.418L444.037,316.724L423.921,316.724L423.921,324.99L442.638,324.99L442.638,331.271L423.921,331.271L423.921,341.418L444.749,341.418L444.749,347.7L416.393,347.7Z" style="fill:rgb(29,29,27);fill-rule:nonzero;stroke:rgb(29,29,27);stroke-width:0.23px;stroke-linejoin:round;stroke-miterlimit:1.41421;"/>
                    </g>
                    <g transform="matrix(0.511616,-0.000202816,0.000225351,0.568462,174.136,146.206)">
                        <path d="M444.237,338.604L444.237,301.321L460.081,301.321C464.065,301.321 466.96,301.656 468.766,302.326C470.571,302.996 472.017,304.187 473.102,305.899C474.187,307.611 474.729,309.57 474.729,311.774C474.729,314.571 473.907,316.881 472.262,318.704C470.618,320.526 468.159,321.675 464.887,322.15C466.515,323.099 467.859,324.142 468.918,325.278C469.978,326.414 471.406,328.431 473.203,331.33L477.756,338.604L468.753,338.604L463.311,330.491C461.378,327.592 460.055,325.765 459.343,325.011C458.631,324.256 457.877,323.739 457.08,323.459C456.283,323.18 455.02,323.04 453.291,323.04L451.765,323.04L451.765,338.604L444.237,338.604ZM451.765,317.089L457.334,317.089C460.945,317.089 463.2,316.936 464.099,316.631C464.997,316.326 465.701,315.8 466.21,315.054C466.718,314.308 466.973,313.376 466.973,312.257C466.973,311.002 466.638,309.989 465.968,309.218C465.298,308.446 464.353,307.959 463.133,307.755C462.522,307.671 460.691,307.628 457.639,307.628L451.765,307.628L451.765,317.089Z" style="fill:rgb(29,29,27);fill-rule:nonzero;stroke:rgb(29,29,27);stroke-width:0.23px;stroke-linejoin:round;stroke-miterlimit:1.41421;"/>
                    </g>
                    <g transform="matrix(0.497379,0.119856,-0.133174,0.552643,227.654,94.9739)">
                        <path d="M484.577,337.738L471.251,300.456L479.415,300.456L488.85,328.049L497.98,300.456L505.965,300.456L492.614,337.738L484.577,337.738Z" style="fill:rgb(29,29,27);fill-rule:nonzero;stroke:rgb(29,29,27);stroke-width:0.23px;stroke-linejoin:round;stroke-miterlimit:1.41421;"/>
                    </g>
                    <g transform="matrix(0.450432,0.242615,-0.269572,0.50048,300.848,48.228)">
                        <path d="M503.597,343.799L503.597,306.517L531.241,306.517L531.241,312.824L511.125,312.824L511.125,321.089L529.842,321.089L529.842,327.371L511.125,327.371L511.125,337.518L531.953,337.518L531.953,343.799L503.597,343.799Z" style="fill:rgb(29,29,27);fill-rule:nonzero;stroke:rgb(29,29,27);stroke-width:0.23px;stroke-linejoin:round;stroke-miterlimit:1.41421;"/>
                    </g>
                    <g transform="matrix(0.374461,0.348611,-0.387346,0.416068,389.419,17.1376)">
                        <path d="M529.821,356.805L529.821,319.523L537.145,319.523L552.404,344.42L552.404,319.523L559.398,319.523L559.398,356.805L551.844,356.805L536.815,332.492L536.815,356.805L529.821,356.805Z" style="fill:rgb(29,29,27);fill-rule:nonzero;stroke:rgb(29,29,27);stroke-width:0.23px;stroke-linejoin:round;stroke-miterlimit:1.41421;"/>
                    </g>
                    <g transform="matrix(0.271982,0.433333,-0.481481,0.302202,494.143,8.61887)">
                        <path d="M563.175,378.048L563.175,362.357L549.518,340.766L558.343,340.766L567.116,355.516L575.712,340.766L584.384,340.766L570.677,362.408L570.677,378.048L563.175,378.048ZM562.183,338.63L565.692,331.026L573.703,331.026L566.71,338.63L562.183,338.63Z" style="fill:rgb(29,29,27);fill-rule:nonzero;stroke:rgb(29,29,27);stroke-width:0.23px;stroke-linejoin:round;stroke-miterlimit:1.41421;"/>
                    </g>
                    <g transform="matrix(0.0948028,0.502756,-0.558618,0.105336,649.658,50.1331)">
                        <path d="M574.457,412.138L574.457,374.856L581.985,374.856L581.985,391.412L597.192,374.856L607.314,374.856L593.276,389.377L608.077,412.138L598.337,412.138L588.088,394.641L581.985,400.872L581.985,412.138L574.457,412.138Z" style="fill:rgb(29,29,27);fill-rule:nonzero;stroke:rgb(29,29,27);stroke-width:0.23px;stroke-linejoin:round;stroke-miterlimit:1.41421;"/>
                    </g>
                    <g transform="matrix(-0.0429009,0.509814,-0.56646,-0.0476676,753.446,124.68)">
                        <path d="M581.53,443.235L581.53,405.953L597.374,405.953C601.358,405.953 604.253,406.288 606.059,406.958C607.864,407.627 609.31,408.818 610.395,410.531C611.48,412.243 612.022,414.201 612.022,416.405C612.022,419.203 611.2,421.513 609.556,423.335C607.911,425.158 605.453,426.307 602.18,426.781C603.808,427.731 605.152,428.773 606.211,429.909C607.271,431.045 608.699,433.063 610.496,435.962L615.049,443.235L606.046,443.235L600.604,435.123C598.671,432.224 597.348,430.397 596.636,429.642C595.924,428.888 595.17,428.371 594.373,428.091C593.576,427.811 592.313,427.671 590.584,427.671L589.058,427.671L589.058,443.235L581.53,443.235ZM589.058,421.72L594.627,421.72C598.239,421.72 600.493,421.568 601.392,421.263C602.291,420.958 602.994,420.432 603.503,419.686C604.011,418.94 604.266,418.008 604.266,416.889C604.266,415.634 603.931,414.621 603.261,413.849C602.592,413.078 601.646,412.591 600.426,412.387C599.815,412.302 597.984,412.26 594.932,412.26L589.058,412.26L589.058,421.72ZM585.294,396.162L591.067,396.162L593.814,399.951L596.764,396.162L602.511,396.162L597.247,403.664L590.635,403.664L585.294,396.162Z" style="fill:rgb(29,29,27);fill-rule:nonzero;stroke:rgb(29,29,27);stroke-width:0.23px;stroke-linejoin:round;stroke-miterlimit:1.41421;"/>
                    </g>
                    <g transform="matrix(-0.127986,0.495349,-0.550388,-0.142207,810.787,198.693)">
                        <path d="M578.419,474.667L578.419,437.385L585.947,437.385L585.947,474.667L578.419,474.667ZM577.555,435.249L581.064,427.645L589.075,427.645L582.081,435.249L577.555,435.249Z" style="fill:rgb(29,29,27);fill-rule:nonzero;stroke:rgb(29,29,27);stroke-width:0.23px;stroke-linejoin:round;stroke-miterlimit:1.41421;"/>
                    </g>
                    <g transform="matrix(-0.203741,0.469298,-0.521443,-0.226378,844.886,262.946)">
                        <path d="M573.727,485.4L573.727,478.61L593.309,454.425L575.94,454.425L575.94,448.118L603.227,448.118L603.227,453.967L582.806,479.119L604.016,479.119L604.016,485.4L573.727,485.4ZM580.06,438.327L585.832,438.327L588.579,442.116L591.529,438.327L597.277,438.327L592.012,445.829L585.4,445.829L580.06,438.327Z" style="fill:rgb(29,29,27);fill-rule:nonzero;stroke:rgb(29,29,27);stroke-width:0.23px;stroke-linejoin:round;stroke-miterlimit:1.41421;"/>
                    </g>
                </g>
            </g>
        </g>
    </g>
</svg>
